<?xml version="1.0"?>
<svg xmlns:rdf="http://www.w3.org/1999/02/22-rdf-syntax-ns#" xmlns="http://www.w3.org/2000/svg" xmlns:cc="http://creativecommons.org/ns#" xmlns:xlink="http://www.w3.org/1999/xlink" xmlns:dc="http://purl.org/dc/elements/1.1/" xmlns:svg="http://www.w3.org/2000/svg" id="svg2" viewBox="0 0 38 38" version="1.0">
  <defs id="defs4">
    <linearGradient id="linearGradient1483" y2="48.499" gradientUnits="userSpaceOnUse" x2="1.7526" gradientTransform="matrix(0 1 1 0 7.5625 30.438)" y1="16.376" x1="1.6305">
      <stop id="stop3704" stop-color="#ced1f2" offset="0"/>
      <stop id="stop3706" stop-color="#1d42c9" stop-opacity="0" offset="1"/>
    </linearGradient>
    <linearGradient id="linearGradient1487" y2="50.93" gradientUnits="userSpaceOnUse" x2="45.964" gradientTransform="matrix(0 1 1 0 .9512 -2)" y1="10.692" x1="22.04">
      <stop id="stop2858" stop-color="#3c44dc" offset="0"/>
      <stop id="stop2860" stop-color="#0d1f6a" offset="1"/>
    </linearGradient>
    <radialGradient id="radialGradient1489" gradientUnits="userSpaceOnUse" cy="7.0983" cx="-15.475" gradientTransform="matrix(-.13160 1.117 -1.0576 -.12462 33.357 39.585)" r="17.1">
      <stop id="stop3632" stop-color="#d2d0f3" offset="0"/>
      <stop id="stop3634" stop-color="#1c3db8" offset="1"/>
    </radialGradient>
  </defs>
  <g id="layer1">
    <g id="g2466" transform="translate(-13 -13)">
      <path id="path2125" d="m14 22c0-1 1-1 1-1h17c0.049-1 0-5 0-5 0.009-0.447 0.109-0.846 0.523-1.016s0.889-0.077 1.209 0.235l16 16c0.422 0.435 0.422 1.127 0 1.562l-16 16c-0.32 0.312-0.795 0.405-1.209 0.235s-0.514-0.569-0.523-1.016v-5h-17.049s-1 0-1-1c0-6 0.049-14 0.049-20z" fill="url(#linearGradient1487)"/>
      <path id="path3636" d="m41.781 15.156c-5.903 0.002-13.643 0.061-19.562 0.063v16.781c0.001 0.649-0.508 1.186-1.157 1.219-1.093 0.053-4.057 0.008-4.624 0l15.562 15.562 15.531-15.562h-4.531c-0.673 0-1.219-0.546-1.219-1.219v-16.844z" fill="url(#radialGradient1489)" transform="matrix(0 1 1 0 0 2.1106e-7)"/>
      <path id="path3696" d="m22.031 23.219c4.118 0 9.206 0.037 9.75 0 3.219-0.219 1.219-4.219 3.219-3.219s12 12 12 12l-11.062 10.938c-2.938-7.938-7.214-15.3-13.907-19.719z" fill="url(#linearGradient1483)"/>
    </g>
  </g>
  <metadata>
    <rdf:RDF>
      <cc:Work>
        <dc:format>image/svg+xml</dc:format>
        <dc:type rdf:resource="http://purl.org/dc/dcmitype/StillImage"/>
        <cc:license rdf:resource="http://creativecommons.org/licenses/publicdomain/"/>
        <dc:publisher>
          <cc:Agent rdf:about="http://openclipart.org/">
            <dc:title>Openclipart</dc:title>
          </cc:Agent>
        </dc:publisher>
        <dc:title>arrow_blue_right</dc:title>
        <dc:date>2008-05-26T11:31:24</dc:date>
        <dc:description>arrow, arrow, clip art, clipart, icon, icon, image, media, png, public domain, svg, </dc:description>
        <dc:source>http://openclipart.org/detail/16960/arrow_blue_right-by-jean_victor_balin</dc:source>
        <dc:creator>
          <cc:Agent>
            <dc:title>jean_victor_balin</dc:title>
          </cc:Agent>
        </dc:creator>
        <dc:subject>
          <rdf:Bag>
            <rdf:li>arrow</rdf:li>
            <rdf:li>clip art</rdf:li>
            <rdf:li>clipart</rdf:li>
            <rdf:li>icon</rdf:li>
            <rdf:li>image</rdf:li>
            <rdf:li>media</rdf:li>
            <rdf:li>png</rdf:li>
            <rdf:li>public domain</rdf:li>
            <rdf:li>svg</rdf:li>
          </rdf:Bag>
        </dc:subject>
      </cc:Work>
      <cc:License rdf:about="http://creativecommons.org/licenses/publicdomain/">
        <cc:permits rdf:resource="http://creativecommons.org/ns#Reproduction"/>
        <cc:permits rdf:resource="http://creativecommons.org/ns#Distribution"/>
        <cc:permits rdf:resource="http://creativecommons.org/ns#DerivativeWorks"/>
      </cc:License>
    </rdf:RDF>
  </metadata>
</svg>
